<svg width="22" height="22" viewBox="0 0 22 22" fill="none" xmlns="http://www.w3.org/2000/svg">
<path d="M10.5546 0.872679C10.7402 0.509053 11.2598 0.509054 11.4454 0.87268L14.4816 6.82226C14.5543 6.96461 14.6906 7.06366 14.8484 7.08877L21.4451 8.13791C21.8483 8.20203 22.0088 8.69617 21.7203 8.98503L17.0002 13.7112C16.8873 13.8243 16.8352 13.9846 16.8601 14.1424L17.9008 20.7404C17.9644 21.1437 17.544 21.4491 17.1802 21.264L11.2267 18.2353C11.0843 18.1629 10.9157 18.1629 10.7733 18.2353L4.81983 21.264C4.45596 21.4491 4.03562 21.1437 4.09922 20.7404L5.1399 14.1424C5.16481 13.9846 5.11273 13.8243 4.99979 13.7112L0.279668 8.98503C-0.00881642 8.69618 0.15174 8.20203 0.554913 8.13791L7.15155 7.08877C7.30939 7.06366 7.44572 6.96461 7.51838 6.82225L10.5546 0.872679Z" fill="#FD4D7C"/>
</svg>
